<?xml version="1.0" encoding="UTF-8"?>
<svg xmlns="http://www.w3.org/2000/svg" xmlns:xlink="http://www.w3.org/1999/xlink" width="38px" height="38px" viewBox="0 0 38 38" version="1.1">
	<g id="surface1">
		<path style=" stroke:none;fill-rule:nonzero;fill:rgb(4.705882%,4.705882%,4.705882%);fill-opacity:1;" d="M 7.125 7.125 C 14.960938 7.125 22.800781 7.125 30.875 7.125 C 30.875 7.175781 30.875 7.222656 30.875 7.273438 C 30.925781 7.273438 30.972656 7.273438 31.023438 7.273438 C 31.023438 7.324219 31.023438 7.371094 31.023438 7.421875 C 31.074219 7.421875 31.121094 7.421875 31.171875 7.421875 C 31.171875 7.472656 31.171875 7.519531 31.171875 7.570312 C 31.222656 7.570312 31.269531 7.570312 31.320312 7.570312 C 31.320312 7.621094 31.320312 7.667969 31.320312 7.71875 C 31.371094 7.71875 31.417969 7.71875 31.46875 7.71875 C 31.46875 7.769531 31.46875 7.816406 31.46875 7.867188 C 31.519531 7.867188 31.566406 7.867188 31.617188 7.867188 C 31.617188 7.917969 31.617188 7.964844 31.617188 8.015625 C 31.667969 8.015625 31.714844 8.015625 31.765625 8.015625 C 31.765625 8.066406 31.765625 8.113281 31.765625 8.164062 C 31.816406 8.164062 31.863281 8.164062 31.914062 8.164062 C 31.914062 8.214844 31.914062 8.261719 31.914062 8.3125 C 31.964844 8.3125 32.011719 8.3125 32.0625 8.3125 C 32.0625 8.363281 32.0625 8.410156 32.0625 8.460938 C 32.113281 8.460938 32.160156 8.460938 32.210938 8.460938 C 32.210938 8.511719 32.210938 8.558594 32.210938 8.609375 C 32.261719 8.609375 32.308594 8.609375 32.359375 8.609375 C 32.359375 8.660156 32.359375 8.707031 32.359375 8.757812 C 32.410156 8.757812 32.457031 8.757812 32.507812 8.757812 C 32.507812 8.808594 32.507812 8.855469 32.507812 8.90625 C 32.558594 8.90625 32.605469 8.90625 32.65625 8.90625 C 32.65625 8.957031 32.65625 9.003906 32.65625 9.054688 C 32.707031 9.054688 32.753906 9.054688 32.804688 9.054688 C 32.804688 9.105469 32.804688 9.152344 32.804688 9.203125 C 32.855469 9.203125 32.902344 9.203125 32.953125 9.203125 C 32.953125 9.253906 32.953125 9.300781 32.953125 9.351562 C 33.003906 9.351562 33.050781 9.351562 33.101562 9.351562 C 33.101562 9.402344 33.101562 9.449219 33.101562 9.5 C 33.152344 9.5 33.199219 9.5 33.25 9.5 C 33.25 16.554688 33.25 23.609375 33.25 30.875 C 30.113281 30.875 26.980469 30.875 23.75 30.875 C 23.75 30.824219 23.75 30.777344 23.75 30.726562 C 23.699219 30.726562 23.652344 30.726562 23.601562 30.726562 C 23.601562 30.675781 23.601562 30.628906 23.601562 30.578125 C 23.550781 30.578125 23.503906 30.578125 23.453125 30.578125 C 23.453125 30.527344 23.453125 30.480469 23.453125 30.429688 C 23.402344 30.429688 23.355469 30.429688 23.304688 30.429688 C 23.304688 30.378906 23.304688 30.332031 23.304688 30.28125 C 23.253906 30.28125 23.207031 30.28125 23.15625 30.28125 C 23.15625 30.230469 23.15625 30.183594 23.15625 30.132812 C 23.105469 30.132812 23.058594 30.132812 23.007812 30.132812 C 23.007812 30.082031 23.007812 30.035156 23.007812 29.984375 C 22.957031 29.984375 22.910156 29.984375 22.859375 29.984375 C 22.859375 29.933594 22.859375 29.886719 22.859375 29.835938 C 22.808594 29.835938 22.761719 29.835938 22.710938 29.835938 C 22.710938 29.785156 22.710938 29.738281 22.710938 29.6875 C 22.660156 29.6875 22.613281 29.6875 22.5625 29.6875 C 22.5625 29.636719 22.5625 29.589844 22.5625 29.539062 C 22.511719 29.539062 22.464844 29.539062 22.414062 29.539062 C 22.414062 29.488281 22.414062 29.441406 22.414062 29.390625 C 22.363281 29.390625 22.316406 29.390625 22.265625 29.390625 C 22.265625 29.339844 22.265625 29.292969 22.265625 29.242188 C 22.214844 29.242188 22.167969 29.242188 22.117188 29.242188 C 22.117188 29.191406 22.117188 29.144531 22.117188 29.09375 C 22.066406 29.09375 22.019531 29.09375 21.96875 29.09375 C 21.96875 29.042969 21.96875 28.996094 21.96875 28.945312 C 21.917969 28.945312 21.871094 28.945312 21.820312 28.945312 C 21.820312 28.894531 21.820312 28.847656 21.820312 28.796875 C 21.769531 28.796875 21.722656 28.796875 21.671875 28.796875 C 21.671875 28.746094 21.671875 28.699219 21.671875 28.648438 C 21.621094 28.648438 21.574219 28.648438 21.523438 28.648438 C 21.523438 28.597656 21.523438 28.550781 21.523438 28.5 C 19.859375 28.5 18.191406 28.5 16.476562 28.5 C 16.476562 28.550781 16.476562 28.597656 16.476562 28.648438 C 16.425781 28.648438 16.378906 28.648438 16.328125 28.648438 C 16.328125 28.699219 16.328125 28.746094 16.328125 28.796875 C 16.277344 28.796875 16.230469 28.796875 16.179688 28.796875 C 16.179688 28.847656 16.179688 28.894531 16.179688 28.945312 C 16.128906 28.945312 16.082031 28.945312 16.03125 28.945312 C 16.03125 28.996094 16.03125 29.042969 16.03125 29.09375 C 15.980469 29.09375 15.933594 29.09375 15.882812 29.09375 C 15.882812 29.144531 15.882812 29.191406 15.882812 29.242188 C 15.832031 29.242188 15.785156 29.242188 15.734375 29.242188 C 15.734375 29.292969 15.734375 29.339844 15.734375 29.390625 C 15.683594 29.390625 15.636719 29.390625 15.585938 29.390625 C 15.585938 29.441406 15.585938 29.488281 15.585938 29.539062 C 15.535156 29.539062 15.488281 29.539062 15.4375 29.539062 C 15.4375 29.589844 15.4375 29.636719 15.4375 29.6875 C 15.386719 29.6875 15.339844 29.6875 15.289062 29.6875 C 15.289062 29.738281 15.289062 29.785156 15.289062 29.835938 C 15.238281 29.835938 15.191406 29.835938 15.140625 29.835938 C 15.140625 29.886719 15.140625 29.933594 15.140625 29.984375 C 15.089844 29.984375 15.042969 29.984375 14.992188 29.984375 C 14.992188 30.035156 14.992188 30.082031 14.992188 30.132812 C 14.941406 30.132812 14.894531 30.132812 14.84375 30.132812 C 14.84375 30.183594 14.84375 30.230469 14.84375 30.28125 C 14.792969 30.28125 14.746094 30.28125 14.695312 30.28125 C 14.695312 30.332031 14.695312 30.378906 14.695312 30.429688 C 14.644531 30.429688 14.597656 30.429688 14.546875 30.429688 C 14.546875 30.480469 14.546875 30.527344 14.546875 30.578125 C 14.496094 30.578125 14.449219 30.578125 14.398438 30.578125 C 14.398438 30.628906 14.398438 30.675781 14.398438 30.726562 C 14.347656 30.726562 14.300781 30.726562 14.25 30.726562 C 14.25 30.777344 14.25 30.824219 14.25 30.875 C 11.113281 30.875 7.980469 30.875 4.75 30.875 C 4.75 23.820312 4.75 16.765625 4.75 9.5 C 4.800781 9.5 4.847656 9.5 4.898438 9.5 C 4.898438 9.449219 4.898438 9.402344 4.898438 9.351562 C 4.949219 9.351562 4.996094 9.351562 5.046875 9.351562 C 5.046875 9.300781 5.046875 9.253906 5.046875 9.203125 C 5.097656 9.203125 5.144531 9.203125 5.195312 9.203125 C 5.195312 9.152344 5.195312 9.105469 5.195312 9.054688 C 5.246094 9.054688 5.292969 9.054688 5.34375 9.054688 C 5.34375 9.003906 5.34375 8.957031 5.34375 8.90625 C 5.394531 8.90625 5.441406 8.90625 5.492188 8.90625 C 5.492188 8.855469 5.492188 8.808594 5.492188 8.757812 C 5.542969 8.757812 5.589844 8.757812 5.640625 8.757812 C 5.640625 8.707031 5.640625 8.660156 5.640625 8.609375 C 5.691406 8.609375 5.738281 8.609375 5.789062 8.609375 C 5.789062 8.558594 5.789062 8.511719 5.789062 8.460938 C 5.839844 8.460938 5.886719 8.460938 5.9375 8.460938 C 5.9375 8.410156 5.9375 8.363281 5.9375 8.3125 C 5.988281 8.3125 6.035156 8.3125 6.085938 8.3125 C 6.085938 8.261719 6.085938 8.214844 6.085938 8.164062 C 6.136719 8.164062 6.183594 8.164062 6.234375 8.164062 C 6.234375 8.113281 6.234375 8.066406 6.234375 8.015625 C 6.285156 8.015625 6.332031 8.015625 6.382812 8.015625 C 6.382812 7.964844 6.382812 7.917969 6.382812 7.867188 C 6.433594 7.867188 6.480469 7.867188 6.53125 7.867188 C 6.53125 7.816406 6.53125 7.769531 6.53125 7.71875 C 6.582031 7.71875 6.628906 7.71875 6.679688 7.71875 C 6.679688 7.667969 6.679688 7.621094 6.679688 7.570312 C 6.730469 7.570312 6.777344 7.570312 6.828125 7.570312 C 6.828125 7.519531 6.828125 7.472656 6.828125 7.421875 C 6.878906 7.421875 6.925781 7.421875 6.976562 7.421875 C 6.976562 7.371094 6.976562 7.324219 6.976562 7.273438 C 7.027344 7.273438 7.074219 7.273438 7.125 7.273438 C 7.125 7.222656 7.125 7.175781 7.125 7.125 Z M 7.125 7.125 "/>
		<path style=" stroke:none;fill-rule:nonzero;fill:rgb(100%,65.882355%,6.666667%);fill-opacity:1;" d="M 7.125 7.125 C 14.960938 7.125 22.800781 7.125 30.875 7.125 C 30.875 7.175781 30.875 7.222656 30.875 7.273438 C 30.925781 7.273438 30.972656 7.273438 31.023438 7.273438 C 31.023438 7.324219 31.023438 7.371094 31.023438 7.421875 C 31.074219 7.421875 31.121094 7.421875 31.171875 7.421875 C 31.171875 7.472656 31.171875 7.519531 31.171875 7.570312 C 31.222656 7.570312 31.269531 7.570312 31.320312 7.570312 C 31.320312 7.621094 31.320312 7.667969 31.320312 7.71875 C 31.371094 7.71875 31.417969 7.71875 31.46875 7.71875 C 31.46875 7.769531 31.46875 7.816406 31.46875 7.867188 C 31.519531 7.867188 31.566406 7.867188 31.617188 7.867188 C 31.617188 7.917969 31.617188 7.964844 31.617188 8.015625 C 31.667969 8.015625 31.714844 8.015625 31.765625 8.015625 C 31.765625 8.066406 31.765625 8.113281 31.765625 8.164062 C 31.816406 8.164062 31.863281 8.164062 31.914062 8.164062 C 31.914062 8.214844 31.914062 8.261719 31.914062 8.3125 C 31.964844 8.3125 32.011719 8.3125 32.0625 8.3125 C 32.0625 8.363281 32.0625 8.410156 32.0625 8.460938 C 32.113281 8.460938 32.160156 8.460938 32.210938 8.460938 C 32.210938 8.511719 32.210938 8.558594 32.210938 8.609375 C 32.261719 8.609375 32.308594 8.609375 32.359375 8.609375 C 32.359375 8.660156 32.359375 8.707031 32.359375 8.757812 C 32.410156 8.757812 32.457031 8.757812 32.507812 8.757812 C 32.507812 8.808594 32.507812 8.855469 32.507812 8.90625 C 32.558594 8.90625 32.605469 8.90625 32.65625 8.90625 C 32.65625 8.957031 32.65625 9.003906 32.65625 9.054688 C 32.707031 9.054688 32.753906 9.054688 32.804688 9.054688 C 32.804688 9.105469 32.804688 9.152344 32.804688 9.203125 C 32.855469 9.203125 32.902344 9.203125 32.953125 9.203125 C 32.953125 9.253906 32.953125 9.300781 32.953125 9.351562 C 33.003906 9.351562 33.050781 9.351562 33.101562 9.351562 C 33.101562 9.402344 33.101562 9.449219 33.101562 9.5 C 33.152344 9.5 33.199219 9.5 33.25 9.5 C 33.25 16.554688 33.25 23.609375 33.25 30.875 C 30.113281 30.875 26.980469 30.875 23.75 30.875 C 23.75 30.824219 23.75 30.777344 23.75 30.726562 C 23.699219 30.726562 23.652344 30.726562 23.601562 30.726562 C 23.601562 30.675781 23.601562 30.628906 23.601562 30.578125 C 23.550781 30.578125 23.503906 30.578125 23.453125 30.578125 C 23.453125 30.527344 23.453125 30.480469 23.453125 30.429688 C 23.402344 30.429688 23.355469 30.429688 23.304688 30.429688 C 23.304688 30.378906 23.304688 30.332031 23.304688 30.28125 C 23.253906 30.28125 23.207031 30.28125 23.15625 30.28125 C 23.15625 30.230469 23.15625 30.183594 23.15625 30.132812 C 23.105469 30.132812 23.058594 30.132812 23.007812 30.132812 C 23.007812 30.082031 23.007812 30.035156 23.007812 29.984375 C 22.957031 29.984375 22.910156 29.984375 22.859375 29.984375 C 22.859375 29.933594 22.859375 29.886719 22.859375 29.835938 C 22.808594 29.835938 22.761719 29.835938 22.710938 29.835938 C 22.710938 29.785156 22.710938 29.738281 22.710938 29.6875 C 22.660156 29.6875 22.613281 29.6875 22.5625 29.6875 C 22.5625 29.636719 22.5625 29.589844 22.5625 29.539062 C 22.511719 29.539062 22.464844 29.539062 22.414062 29.539062 C 22.414062 29.488281 22.414062 29.441406 22.414062 29.390625 C 22.363281 29.390625 22.316406 29.390625 22.265625 29.390625 C 22.265625 29.339844 22.265625 29.292969 22.265625 29.242188 C 22.214844 29.242188 22.167969 29.242188 22.117188 29.242188 C 22.117188 29.191406 22.117188 29.144531 22.117188 29.09375 C 22.066406 29.09375 22.019531 29.09375 21.96875 29.09375 C 21.96875 29.042969 21.96875 28.996094 21.96875 28.945312 C 21.917969 28.945312 21.871094 28.945312 21.820312 28.945312 C 21.820312 28.894531 21.820312 28.847656 21.820312 28.796875 C 21.769531 28.796875 21.722656 28.796875 21.671875 28.796875 C 21.671875 28.746094 21.671875 28.699219 21.671875 28.648438 C 21.621094 28.648438 21.574219 28.648438 21.523438 28.648438 C 21.523438 28.597656 21.523438 28.550781 21.523438 28.5 C 19.859375 28.5 18.191406 28.5 16.476562 28.5 C 16.476562 28.550781 16.476562 28.597656 16.476562 28.648438 C 16.425781 28.648438 16.378906 28.648438 16.328125 28.648438 C 16.328125 28.699219 16.328125 28.746094 16.328125 28.796875 C 16.277344 28.796875 16.230469 28.796875 16.179688 28.796875 C 16.179688 28.847656 16.179688 28.894531 16.179688 28.945312 C 16.128906 28.945312 16.082031 28.945312 16.03125 28.945312 C 16.03125 28.996094 16.03125 29.042969 16.03125 29.09375 C 15.980469 29.09375 15.933594 29.09375 15.882812 29.09375 C 15.882812 29.144531 15.882812 29.191406 15.882812 29.242188 C 15.832031 29.242188 15.785156 29.242188 15.734375 29.242188 C 15.734375 29.292969 15.734375 29.339844 15.734375 29.390625 C 15.683594 29.390625 15.636719 29.390625 15.585938 29.390625 C 15.585938 29.441406 15.585938 29.488281 15.585938 29.539062 C 15.535156 29.539062 15.488281 29.539062 15.4375 29.539062 C 15.4375 29.589844 15.4375 29.636719 15.4375 29.6875 C 15.386719 29.6875 15.339844 29.6875 15.289062 29.6875 C 15.289062 29.738281 15.289062 29.785156 15.289062 29.835938 C 15.238281 29.835938 15.191406 29.835938 15.140625 29.835938 C 15.140625 29.886719 15.140625 29.933594 15.140625 29.984375 C 15.089844 29.984375 15.042969 29.984375 14.992188 29.984375 C 14.992188 30.035156 14.992188 30.082031 14.992188 30.132812 C 14.941406 30.132812 14.894531 30.132812 14.84375 30.132812 C 14.84375 30.183594 14.84375 30.230469 14.84375 30.28125 C 14.792969 30.28125 14.746094 30.28125 14.695312 30.28125 C 14.695312 30.332031 14.695312 30.378906 14.695312 30.429688 C 14.644531 30.429688 14.597656 30.429688 14.546875 30.429688 C 14.546875 30.480469 14.546875 30.527344 14.546875 30.578125 C 14.496094 30.578125 14.449219 30.578125 14.398438 30.578125 C 14.398438 30.628906 14.398438 30.675781 14.398438 30.726562 C 14.347656 30.726562 14.300781 30.726562 14.25 30.726562 C 14.25 30.777344 14.25 30.824219 14.25 30.875 C 11.113281 30.875 7.980469 30.875 4.75 30.875 C 4.75 23.820312 4.75 16.765625 4.75 9.5 C 4.800781 9.5 4.847656 9.5 4.898438 9.5 C 4.898438 9.449219 4.898438 9.402344 4.898438 9.351562 C 4.949219 9.351562 4.996094 9.351562 5.046875 9.351562 C 5.046875 9.300781 5.046875 9.253906 5.046875 9.203125 C 5.097656 9.203125 5.144531 9.203125 5.195312 9.203125 C 5.195312 9.152344 5.195312 9.105469 5.195312 9.054688 C 5.246094 9.054688 5.292969 9.054688 5.34375 9.054688 C 5.34375 9.003906 5.34375 8.957031 5.34375 8.90625 C 5.394531 8.90625 5.441406 8.90625 5.492188 8.90625 C 5.492188 8.855469 5.492188 8.808594 5.492188 8.757812 C 5.542969 8.757812 5.589844 8.757812 5.640625 8.757812 C 5.640625 8.707031 5.640625 8.660156 5.640625 8.609375 C 5.691406 8.609375 5.738281 8.609375 5.789062 8.609375 C 5.789062 8.558594 5.789062 8.511719 5.789062 8.460938 C 5.839844 8.460938 5.886719 8.460938 5.9375 8.460938 C 5.9375 8.410156 5.9375 8.363281 5.9375 8.3125 C 5.988281 8.3125 6.035156 8.3125 6.085938 8.3125 C 6.085938 8.261719 6.085938 8.214844 6.085938 8.164062 C 6.136719 8.164062 6.183594 8.164062 6.234375 8.164062 C 6.234375 8.113281 6.234375 8.066406 6.234375 8.015625 C 6.285156 8.015625 6.332031 8.015625 6.382812 8.015625 C 6.382812 7.964844 6.382812 7.917969 6.382812 7.867188 C 6.433594 7.867188 6.480469 7.867188 6.53125 7.867188 C 6.53125 7.816406 6.53125 7.769531 6.53125 7.71875 C 6.582031 7.71875 6.628906 7.71875 6.679688 7.71875 C 6.679688 7.667969 6.679688 7.621094 6.679688 7.570312 C 6.730469 7.570312 6.777344 7.570312 6.828125 7.570312 C 6.828125 7.519531 6.828125 7.472656 6.828125 7.421875 C 6.878906 7.421875 6.925781 7.421875 6.976562 7.421875 C 6.976562 7.371094 6.976562 7.324219 6.976562 7.273438 C 7.027344 7.273438 7.074219 7.273438 7.125 7.273438 C 7.125 7.222656 7.125 7.175781 7.125 7.125 Z M 9.351562 9.5 C 9.351562 9.550781 9.351562 9.597656 9.351562 9.648438 C 9.300781 9.648438 9.253906 9.648438 9.203125 9.648438 C 9.203125 9.699219 9.203125 9.746094 9.203125 9.796875 C 9.152344 9.796875 9.105469 9.796875 9.054688 9.796875 C 9.054688 9.847656 9.054688 9.894531 9.054688 9.945312 C 9.003906 9.945312 8.957031 9.945312 8.90625 9.945312 C 8.90625 9.996094 8.90625 10.042969 8.90625 10.09375 C 8.855469 10.09375 8.808594 10.09375 8.757812 10.09375 C 8.757812 10.144531 8.757812 10.191406 8.757812 10.242188 C 8.707031 10.242188 8.660156 10.242188 8.609375 10.242188 C 8.609375 10.292969 8.609375 10.339844 8.609375 10.390625 C 8.558594 10.390625 8.511719 10.390625 8.460938 10.390625 C 8.460938 10.441406 8.460938 10.488281 8.460938 10.539062 C 8.410156 10.539062 8.363281 10.539062 8.3125 10.539062 C 8.3125 10.589844 8.3125 10.636719 8.3125 10.6875 C 8.261719 10.6875 8.214844 10.6875 8.164062 10.6875 C 8.164062 10.738281 8.164062 10.785156 8.164062 10.835938 C 8.113281 10.835938 8.066406 10.835938 8.015625 10.835938 C 8.015625 10.886719 8.015625 10.933594 8.015625 10.984375 C 7.964844 10.984375 7.917969 10.984375 7.867188 10.984375 C 7.867188 11.035156 7.867188 11.082031 7.867188 11.132812 C 7.816406 11.132812 7.769531 11.132812 7.71875 11.132812 C 7.71875 11.183594 7.71875 11.230469 7.71875 11.28125 C 7.667969 11.28125 7.621094 11.28125 7.570312 11.28125 C 7.570312 11.332031 7.570312 11.378906 7.570312 11.429688 C 7.519531 11.429688 7.472656 11.429688 7.421875 11.429688 C 7.421875 11.480469 7.421875 11.527344 7.421875 11.578125 C 7.371094 11.578125 7.324219 11.578125 7.273438 11.578125 C 7.273438 11.628906 7.273438 11.675781 7.273438 11.726562 C 7.222656 11.726562 7.175781 11.726562 7.125 11.726562 C 7.125 17.261719 7.125 22.796875 7.125 28.5 C 8.742188 28.5 10.359375 28.5 12.023438 28.5 C 12.023438 28.449219 12.023438 28.402344 12.023438 28.351562 C 12.074219 28.351562 12.121094 28.351562 12.171875 28.351562 C 12.171875 28.300781 12.171875 28.253906 12.171875 28.203125 C 12.222656 28.203125 12.269531 28.203125 12.320312 28.203125 C 12.320312 28.152344 12.320312 28.105469 12.320312 28.054688 C 12.371094 28.054688 12.417969 28.054688 12.46875 28.054688 C 12.46875 28.003906 12.46875 27.957031 12.46875 27.90625 C 12.519531 27.90625 12.566406 27.90625 12.617188 27.90625 C 12.617188 27.855469 12.617188 27.808594 12.617188 27.757812 C 12.667969 27.757812 12.714844 27.757812 12.765625 27.757812 C 12.765625 27.707031 12.765625 27.660156 12.765625 27.609375 C 12.816406 27.609375 12.863281 27.609375 12.914062 27.609375 C 12.914062 27.558594 12.914062 27.511719 12.914062 27.460938 C 12.964844 27.460938 13.011719 27.460938 13.0625 27.460938 C 13.0625 27.410156 13.0625 27.363281 13.0625 27.3125 C 13.113281 27.3125 13.160156 27.3125 13.210938 27.3125 C 13.210938 27.261719 13.210938 27.214844 13.210938 27.164062 C 13.261719 27.164062 13.308594 27.164062 13.359375 27.164062 C 13.359375 27.113281 13.359375 27.066406 13.359375 27.015625 C 13.410156 27.015625 13.457031 27.015625 13.507812 27.015625 C 13.507812 26.964844 13.507812 26.917969 13.507812 26.867188 C 13.558594 26.867188 13.605469 26.867188 13.65625 26.867188 C 13.65625 26.816406 13.65625 26.769531 13.65625 26.71875 C 13.707031 26.71875 13.753906 26.71875 13.804688 26.71875 C 13.804688 26.667969 13.804688 26.621094 13.804688 26.570312 C 13.855469 26.570312 13.902344 26.570312 13.953125 26.570312 C 13.953125 26.519531 13.953125 26.472656 13.953125 26.421875 C 14.003906 26.421875 14.050781 26.421875 14.101562 26.421875 C 14.101562 26.371094 14.101562 26.324219 14.101562 26.273438 C 14.152344 26.273438 14.199219 26.273438 14.25 26.273438 C 14.25 26.222656 14.25 26.175781 14.25 26.125 C 17.386719 26.125 20.519531 26.125 23.75 26.125 C 23.75 26.175781 23.75 26.222656 23.75 26.273438 C 23.800781 26.273438 23.847656 26.273438 23.898438 26.273438 C 23.898438 26.324219 23.898438 26.371094 23.898438 26.421875 C 23.949219 26.421875 23.996094 26.421875 24.046875 26.421875 C 24.046875 26.472656 24.046875 26.519531 24.046875 26.570312 C 24.097656 26.570312 24.144531 26.570312 24.195312 26.570312 C 24.195312 26.621094 24.195312 26.667969 24.195312 26.71875 C 24.246094 26.71875 24.292969 26.71875 24.34375 26.71875 C 24.34375 26.769531 24.34375 26.816406 24.34375 26.867188 C 24.394531 26.867188 24.441406 26.867188 24.492188 26.867188 C 24.492188 26.917969 24.492188 26.964844 24.492188 27.015625 C 24.542969 27.015625 24.589844 27.015625 24.640625 27.015625 C 24.640625 27.066406 24.640625 27.113281 24.640625 27.164062 C 24.691406 27.164062 24.738281 27.164062 24.789062 27.164062 C 24.789062 27.214844 24.789062 27.261719 24.789062 27.3125 C 24.839844 27.3125 24.886719 27.3125 24.9375 27.3125 C 24.9375 27.363281 24.9375 27.410156 24.9375 27.460938 C 24.988281 27.460938 25.035156 27.460938 25.085938 27.460938 C 25.085938 27.511719 25.085938 27.558594 25.085938 27.609375 C 25.136719 27.609375 25.183594 27.609375 25.234375 27.609375 C 25.234375 27.660156 25.234375 27.707031 25.234375 27.757812 C 25.285156 27.757812 25.332031 27.757812 25.382812 27.757812 C 25.382812 27.808594 25.382812 27.855469 25.382812 27.90625 C 25.433594 27.90625 25.480469 27.90625 25.53125 27.90625 C 25.53125 27.957031 25.53125 28.003906 25.53125 28.054688 C 25.582031 28.054688 25.628906 28.054688 25.679688 28.054688 C 25.679688 28.105469 25.679688 28.152344 25.679688 28.203125 C 25.730469 28.203125 25.777344 28.203125 25.828125 28.203125 C 25.828125 28.253906 25.828125 28.300781 25.828125 28.351562 C 25.878906 28.351562 25.925781 28.351562 25.976562 28.351562 C 25.976562 28.402344 25.976562 28.449219 25.976562 28.5 C 27.59375 28.5 29.210938 28.5 30.875 28.5 C 30.875 22.964844 30.875 17.429688 30.875 11.726562 C 30.824219 11.726562 30.777344 11.726562 30.726562 11.726562 C 30.726562 11.675781 30.726562 11.628906 30.726562 11.578125 C 30.675781 11.578125 30.628906 11.578125 30.578125 11.578125 C 30.578125 11.527344 30.578125 11.480469 30.578125 11.429688 C 30.527344 11.429688 30.480469 11.429688 30.429688 11.429688 C 30.429688 11.378906 30.429688 11.332031 30.429688 11.28125 C 30.378906 11.28125 30.332031 11.28125 30.28125 11.28125 C 30.28125 11.230469 30.28125 11.183594 30.28125 11.132812 C 30.230469 11.132812 30.183594 11.132812 30.132812 11.132812 C 30.132812 11.082031 30.132812 11.035156 30.132812 10.984375 C 30.082031 10.984375 30.035156 10.984375 29.984375 10.984375 C 29.984375 10.933594 29.984375 10.886719 29.984375 10.835938 C 29.933594 10.835938 29.886719 10.835938 29.835938 10.835938 C 29.835938 10.785156 29.835938 10.738281 29.835938 10.6875 C 29.785156 10.6875 29.738281 10.6875 29.6875 10.6875 C 29.6875 10.636719 29.6875 10.589844 29.6875 10.539062 C 29.636719 10.539062 29.589844 10.539062 29.539062 10.539062 C 29.539062 10.488281 29.539062 10.441406 29.539062 10.390625 C 29.488281 10.390625 29.441406 10.390625 29.390625 10.390625 C 29.390625 10.339844 29.390625 10.292969 29.390625 10.242188 C 29.339844 10.242188 29.292969 10.242188 29.242188 10.242188 C 29.242188 10.191406 29.242188 10.144531 29.242188 10.09375 C 29.191406 10.09375 29.144531 10.09375 29.09375 10.09375 C 29.09375 10.042969 29.09375 9.996094 29.09375 9.945312 C 29.042969 9.945312 28.996094 9.945312 28.945312 9.945312 C 28.945312 9.894531 28.945312 9.847656 28.945312 9.796875 C 28.894531 9.796875 28.847656 9.796875 28.796875 9.796875 C 28.796875 9.746094 28.796875 9.699219 28.796875 9.648438 C 28.746094 9.648438 28.699219 9.648438 28.648438 9.648438 C 28.648438 9.597656 28.648438 9.550781 28.648438 9.5 C 22.28125 9.5 15.914062 9.5 9.351562 9.5 Z M 9.351562 9.5 "/>
		<path style=" stroke:none;fill-rule:nonzero;fill:rgb(61.960787%,37.254903%,74.509805%);fill-opacity:1;" d="M 19.148438 13.804688 C 19.75 13.804688 20.347656 13.804688 20.96875 13.804688 C 21.273438 14.71875 21.574219 15.632812 21.875 16.546875 C 21.910156 16.648438 21.941406 16.75 21.976562 16.847656 C 22.234375 17.632812 22.488281 18.414062 22.746094 19.199219 C 22.871094 19.585938 23 19.976562 23.125 20.367188 C 23.132812 20.390625 23.144531 20.417969 23.152344 20.445312 C 23.230469 20.679688 23.308594 20.917969 23.382812 21.152344 C 23.558594 21.683594 23.730469 22.210938 23.902344 22.742188 C 23.917969 22.785156 23.933594 22.832031 23.949219 22.875 C 23.960938 22.917969 23.972656 22.957031 23.988281 23 C 24 23.035156 24.011719 23.070312 24.023438 23.109375 C 24.046875 23.195312 24.046875 23.195312 24.046875 23.265625 C 23.582031 23.265625 23.117188 23.265625 22.636719 23.265625 C 22.375 22.613281 22.183594 21.933594 21.96875 21.265625 C 20.671875 21.265625 19.371094 21.265625 18.035156 21.265625 C 17.839844 21.875 17.644531 22.488281 17.441406 23.117188 C 17.417969 23.167969 17.390625 23.21875 17.367188 23.265625 C 16.925781 23.265625 16.484375 23.265625 16.03125 23.265625 C 16.078125 23.058594 16.121094 22.871094 16.1875 22.671875 C 16.195312 22.648438 16.203125 22.625 16.210938 22.597656 C 16.238281 22.519531 16.265625 22.4375 16.292969 22.359375 C 16.3125 22.300781 16.332031 22.242188 16.351562 22.1875 C 16.390625 22.0625 16.433594 21.9375 16.476562 21.8125 C 16.542969 21.613281 16.609375 21.417969 16.675781 21.21875 C 16.78125 20.902344 16.886719 20.589844 16.992188 20.273438 C 17.199219 19.648438 17.410156 19.019531 17.617188 18.394531 C 17.652344 18.292969 17.6875 18.191406 17.71875 18.09375 C 17.996094 17.261719 18.273438 16.429688 18.542969 15.59375 C 18.554688 15.554688 18.554688 15.554688 18.570312 15.511719 C 18.578125 15.484375 18.585938 15.457031 18.59375 15.433594 C 18.707031 15.089844 18.820312 14.75 18.941406 14.410156 C 19.007812 14.210938 19.078125 14.011719 19.148438 13.804688 Z M 19.148438 13.804688 "/>
		<path style=" stroke:none;fill-rule:nonzero;fill:rgb(98.823529%,65.098041%,6.27451%);fill-opacity:1;" d="M 10.054688 15.25 C 10.207031 15.324219 10.324219 15.421875 10.449219 15.53125 C 10.496094 15.574219 10.542969 15.613281 10.589844 15.65625 C 10.613281 15.675781 10.636719 15.695312 10.660156 15.714844 C 10.75 15.792969 10.839844 15.867188 10.929688 15.941406 C 11.082031 16.0625 11.226562 16.183594 11.375 16.308594 C 11.519531 16.433594 11.667969 16.558594 11.820312 16.679688 C 11.992188 16.820312 12.160156 16.960938 12.328125 17.105469 C 12.453125 17.210938 12.578125 17.316406 12.707031 17.421875 C 12.886719 17.566406 13.066406 17.71875 13.242188 17.871094 C 13.40625 18.011719 13.570312 18.148438 13.738281 18.285156 C 13.855469 18.378906 13.96875 18.476562 14.082031 18.574219 C 14.269531 18.730469 14.457031 18.886719 14.644531 19.039062 C 14.75 19.125 14.851562 19.210938 14.953125 19.296875 C 14.855469 19.429688 14.753906 19.53125 14.625 19.636719 C 14.570312 19.679688 14.570312 19.679688 14.515625 19.722656 C 14.496094 19.738281 14.476562 19.753906 14.457031 19.769531 C 14.355469 19.851562 14.257812 19.9375 14.15625 20.019531 C 13.976562 20.171875 13.796875 20.324219 13.613281 20.472656 C 13.496094 20.566406 13.382812 20.664062 13.265625 20.761719 C 13.085938 20.914062 12.90625 21.066406 12.722656 21.214844 C 12.585938 21.328125 12.449219 21.441406 12.3125 21.558594 C 12.1875 21.664062 12.0625 21.769531 11.933594 21.875 C 11.777344 22 11.621094 22.132812 11.46875 22.265625 C 11.28125 22.425781 11.09375 22.582031 10.902344 22.738281 C 10.761719 22.851562 10.621094 22.972656 10.484375 23.089844 C 10.367188 23.1875 10.25 23.285156 10.132812 23.378906 C 10.015625 23.328125 9.9375 23.269531 9.851562 23.183594 C 9.824219 23.15625 9.800781 23.132812 9.777344 23.109375 C 9.753906 23.085938 9.726562 23.058594 9.703125 23.035156 C 9.675781 23.007812 9.652344 22.984375 9.625 22.957031 C 9.503906 22.835938 9.394531 22.71875 9.3125 22.5625 C 9.578125 22.335938 9.839844 22.109375 10.109375 21.898438 C 10.222656 21.804688 10.335938 21.710938 10.445312 21.617188 C 10.613281 21.472656 10.78125 21.335938 10.953125 21.199219 C 11.171875 21.023438 11.390625 20.84375 11.605469 20.664062 C 11.738281 20.554688 11.871094 20.445312 12.003906 20.335938 C 12.058594 20.292969 12.109375 20.25 12.160156 20.207031 C 12.269531 20.117188 12.382812 20.027344 12.492188 19.933594 C 12.519531 19.910156 12.550781 19.886719 12.578125 19.863281 C 12.632812 19.820312 12.6875 19.777344 12.738281 19.730469 C 12.882812 19.613281 13.03125 19.492188 13.171875 19.371094 C 13.117188 19.21875 13.003906 19.132812 12.878906 19.03125 C 12.847656 19.003906 12.847656 19.003906 12.8125 18.976562 C 12.75 18.921875 12.683594 18.867188 12.617188 18.8125 C 12.582031 18.785156 12.546875 18.757812 12.511719 18.726562 C 12.445312 18.675781 12.378906 18.621094 12.3125 18.566406 C 12.195312 18.472656 12.082031 18.375 11.96875 18.277344 C 11.753906 18.09375 11.535156 17.914062 11.320312 17.738281 C 11.078125 17.542969 10.84375 17.347656 10.605469 17.148438 C 10.480469 17.039062 10.351562 16.933594 10.222656 16.828125 C 10.03125 16.671875 9.839844 16.511719 9.648438 16.347656 C 9.539062 16.253906 9.425781 16.160156 9.3125 16.070312 C 9.476562 15.878906 9.640625 15.695312 9.8125 15.515625 C 9.835938 15.488281 9.859375 15.464844 9.882812 15.4375 C 9.941406 15.375 10 15.3125 10.054688 15.25 Z M 10.054688 15.25 "/>
		<path style=" stroke:none;fill-rule:nonzero;fill:rgb(4.705882%,4.705882%,4.705882%);fill-opacity:1;" d="M 20 15.066406 C 20.074219 15.171875 20.105469 15.25 20.140625 15.371094 C 20.15625 15.410156 20.167969 15.453125 20.179688 15.492188 C 20.195312 15.535156 20.207031 15.582031 20.222656 15.625 C 20.238281 15.671875 20.25 15.71875 20.265625 15.765625 C 20.304688 15.890625 20.347656 16.015625 20.386719 16.144531 C 20.425781 16.273438 20.46875 16.40625 20.511719 16.535156 C 20.570312 16.726562 20.628906 16.917969 20.691406 17.105469 C 20.789062 17.421875 20.890625 17.738281 20.988281 18.054688 C 21.042969 18.222656 21.09375 18.386719 21.148438 18.554688 C 21.175781 18.648438 21.207031 18.738281 21.234375 18.828125 C 21.273438 18.957031 21.316406 19.082031 21.355469 19.210938 C 21.367188 19.246094 21.378906 19.285156 21.390625 19.320312 C 21.40625 19.375 21.40625 19.375 21.425781 19.425781 C 21.433594 19.457031 21.441406 19.488281 21.453125 19.515625 C 21.503906 19.691406 21.550781 19.863281 21.597656 20.039062 C 20.542969 20.039062 19.492188 20.039062 18.40625 20.039062 C 18.746094 18.9375 19.09375 17.839844 19.445312 16.742188 C 19.457031 16.699219 19.457031 16.699219 19.472656 16.65625 C 19.515625 16.519531 19.558594 16.382812 19.601562 16.246094 C 19.675781 16.023438 19.746094 15.796875 19.816406 15.574219 C 19.828125 15.539062 19.835938 15.503906 19.847656 15.472656 C 19.867188 15.410156 19.886719 15.351562 19.902344 15.292969 C 19.960938 15.109375 19.960938 15.109375 20 15.066406 Z M 20 15.066406 "/>
	</g>
</svg>
